PathFileType	4	(X/Y/Z)	C:/Users/opensim2020/Desktop/walking_exp_matlab/subject02_walking12_straight_02.trc	
DataRate	CameraRate	NumFrames	NumMarkers	Units	OrigDataRate	OrigDataStartFrame	OrigNumFrames	
100.00	100.00	9	42	mm	100.00	1109	149	
Frame#	Time	LFHD			RFHD			LBHD			RBHD			C7			T10			CLAV			STRN			RBAK			LSHO			LUPA			LELB			LFRM			LWRA			LWRB			LFIN			RSHO			RUPA			RELB			RFRM			RWRA			RWRB			RFIN			LASI			RASI			LPSI			RPSI			LTHI			LKNE			LTIB			LANK			LHEE			LTOE			RTHI			RKNE			RTIB			RANK			RHEE			RTOE			*39			*40			*41			
		X1	Y1	Z1	X2	Y2	Z2	X3	Y3	Z3	X4	Y4	Z4	X5	Y5	Z5	X6	Y6	Z6	X7	Y7	Z7	X8	Y8	Z8	X9	Y9	Z9	X10	Y10	Z10	X11	Y11	Z11	X12	Y12	Z12	X13	Y13	Z13	X14	Y14	Z14	X15	Y15	Z15	X16	Y16	Z16	X17	Y17	Z17	X18	Y18	Z18	X19	Y19	Z19	X20	Y20	Z20	X21	Y21	Z21	X22	Y22	Z22	X23	Y23	Z23	X24	Y24	Z24	X25	Y25	Z25	X26	Y26	Z26	X27	Y27	Z27	X28	Y28	Z28	X29	Y29	Z29	X30	Y30	Z30	X31	Y31	Z31	X32	Y32	Z32	X33	Y33	Z33	X34	Y34	Z34	X35	Y35	Z35	X36	Y36	Z36	X37	Y37	Z37	X38	Y38	Z38	X39	Y39	Z39	X40	Y40	Z40	X41	Y41	Z41	X42	Y42	Z42	

94	0.930	1553.81116	-307.87384	1724.54248	1412.81445	-285.48273	1701.65955	1583.64160	-174.15451	1661.63574	1444.91101	-140.42807	1639.03931	1513.72461	-102.97662	1514.17908	1510.28174	-57.88449	1234.40173	1522.50806	-244.09886	1448.98645	1508.13220	-302.20767	1280.68982	1446.13086	-49.25037	1336.93433	1693.08997	-173.75880	1485.03687	1774.28809	-149.00542	1281.72961	1781.12219	-131.23911	1142.53882	1793.38843	-121.25675	1012.11389	1748.71338	-141.81464	877.72913	1796.06055	-111.81762	889.07880	1791.57495	-112.44003	821.08759	1326.84998	-176.96770	1484.04956	1238.00037	-169.41002	1293.96179	1212.84497	-208.24422	1151.75806	1200.39551	-275.95654	1049.91077	1225.01697	-366.58923	952.34930	1194.06104	-324.87292	929.26318	1191.94202	-384.54321	888.87567	1636.79468	-317.91840	995.39954	1384.96021	-290.44452	959.13214	1576.98584	-96.95361	1020.33362	1463.89709	-81.41647	1012.44952	1700.49744	-308.10568	683.61359	1672.02515	-302.13583	480.29031	1679.77454	-254.27133	290.67764	1645.87805	-257.23526	69.27485	1597.46680	-218.77731	40.22163	1648.13245	-414.66956	32.54003	1310.31750	-196.96538	655.89502	1310.14832	-194.22919	459.13501	1317.94080	-40.71464	360.31699	1363.50171	106.28321	242.41774	1431.69177	153.10597	229.75513	1331.60046	76.46806	84.49898	1476.47107	-199.51274	1796.15112	-3356.74805	2846.00220	1034.23083			 
95	0.940	1554.12329	-320.20358	1726.39294	1413.12732	-297.16843	1703.40894	1584.39014	-186.26288	1663.82703	1445.78149	-152.02431	1641.23694	1514.84546	-114.67767	1516.42529	1512.24963	-69.30853	1236.49573	1523.02881	-255.59950	1451.03467	1508.77258	-313.38977	1282.49792	1448.62646	-60.02309	1339.09412	1693.94495	-186.64668	1487.77295	1776.78015	-165.96513	1284.50781	1785.62830	-151.75755	1144.94653	1798.70166	-145.93906	1014.30511	1754.71655	-170.20421	880.10101	1801.97278	-140.31966	891.02515	1799.18518	-145.08049	823.63434	1327.80615	-187.46181	1485.78320	1239.05762	-179.57948	1295.52515	1215.39832	-216.60463	1152.61328	1202.92432	-282.41238	1049.68323	1227.69019	-371.48172	950.36688	1196.19495	-329.44193	928.16742	1194.87402	-387.93503	885.78699	1637.33496	-328.67426	996.21588	1384.33752	-300.70007	962.75555	1579.17419	-108.09933	1022.60962	1466.50208	-91.56275	1014.76678	1700.83630	-313.36963	683.91754	1672.45325	-305.46985	479.91110	1680.46106	-256.73871	290.39508	1645.79272	-257.43048	69.29738	1597.48291	-218.67642	40.22726	1648.12073	-414.61856	32.53133	1311.50574	-214.96535	658.12012	1311.44019	-217.65401	462.09518	1320.60242	-64.83298	362.79602	1366.69214	80.98720	243.28661	1435.28992	127.21322	227.95970	1329.82373	48.03547	87.67216	1477.14124	-211.63829	1798.24951	-3355.47168	2846.57983	1034.05383			 
96	0.950	1553.79785	-332.34665	1727.68323	1413.26733	-308.73956	1704.99939	1585.05383	-198.35439	1665.92358	1446.53662	-163.61949	1643.29321	1515.88538	-126.35624	1518.58459	1514.13525	-80.71846	1238.57239	1523.47571	-267.02515	1452.98047	1509.44128	-324.60977	1284.25500	1450.55469	-71.38380	1340.71277	1694.67065	-199.46498	1490.43481	1779.19177	-182.81396	1287.42114	1790.02087	-172.36357	1147.56262	1803.89600	-170.80545	1016.82642	1761.26355	-200.47995	884.11487	1807.81042	-169.30756	893.53723	1806.57629	-177.95023	826.92395	1328.20544	-198.49284	1487.25549	1240.99683	-188.25613	1296.93945	1217.77100	-225.14984	1153.55493	1204.80188	-289.38184	1049.39490	1229.94165	-376.26755	948.10120	1198.17102	-333.79486	927.13123	1197.60815	-391.21826	882.78473	1637.61328	-339.24014	996.70605	1383.69897	-310.53952	966.10199	1581.29053	-119.17657	1024.75159	1469.15039	-101.82519	1016.97784	1701.01270	-318.42245	683.90924	1672.80542	-308.43976	479.65198	1680.83154	-258.34576	290.36697	1645.73950	-257.39999	69.35316	1597.44336	-218.49399	40.51188	1648.13208	-414.56592	32.49441	1312.50476	-232.62549	660.38849	1312.55188	-240.80034	464.94009	1322.94165	-88.97177	364.95471	1369.80420	54.88115	242.68172	1438.71106	100.53481	224.54478	1328.31799	18.49906	89.59141	1477.52478	-223.76865	1800.14246						 
97	0.960	1554.04773	-344.42871	1729.54102	1413.23169	-320.31165	1706.48572	1585.24097	-210.67160	1667.80420	1447.25024	-174.97641	1645.20520	1516.93835	-137.99132	1520.62048	1516.11597	-91.94058	1240.48962	1523.85742	-278.53741	1454.89001	1510.07129	-335.82257	1285.88647	1452.75354	-82.34697	1342.24084	1695.00732	-212.38260	1492.94092	1781.28906	-199.77211	1290.32800	1794.30713	-193.02638	1150.50476	1809.06873	-195.94902	1019.76746	1767.02710	-229.71320	887.89795	1813.75696	-198.49112	896.64008	1813.65955	-210.90271	830.87317	1329.10522	-208.84641	1488.73596	1241.96472	-198.19406	1298.48938	1219.96094	-233.41628	1154.39319	1206.76404	-296.34677	1049.42151	1232.25647	-380.47818	945.95667	1199.99951	-337.93631	926.08514	1200.27600	-394.30911	879.95636	1638.24316	-350.39157	997.24768	1383.18811	-320.36908	969.34198	1583.24268	-130.22639	1026.86621	1471.45972	-112.38294	1019.22174	1700.92834	-323.57867	683.82526	1672.88000	-310.95026	479.43576	1680.94885	-259.21503	290.62820	1645.59949	-257.35129	69.39213	1597.77063	-218.10307	40.90136	1648.12341	-414.51379	32.46469	1313.12842	-250.12102	662.68848	1313.80823	-263.48904	467.84656	1325.73083	-113.24793	366.07755	1372.69678	27.94501	240.65669	1441.70972	72.89960	219.92757	1327.35242	-12.16563	90.30275	1477.76526	-235.75270	1801.89026						 
98	0.970	1553.76392	-356.51654	1730.98157	1413.03894	-331.68372	1707.79602	1585.67566	-222.77190	1669.60071	1447.88000	-186.51230	1646.82605	1517.90552	-149.62990	1522.47559	1517.98535	-103.22516	1242.32715	1524.19873	-289.98651	1456.57629	1510.73633	-346.99469	1287.35376	1454.44800	-94.09465	1343.69336	1695.68921	-224.84315	1495.51636	1783.62073	-216.23412	1293.56750	1798.50110	-213.66069	1153.55054	1814.06519	-221.16960	1023.04175	1773.16455	-259.84543	892.60571	1819.52332	-227.87366	900.25500	1820.35193	-244.22464	835.40100	1329.53687	-219.83766	1489.87939	1243.81299	-206.94933	1299.58545	1221.94653	-241.63075	1155.15039	1208.64746	-302.37546	1049.03296	1234.27539	-384.84833	943.83539	1201.74438	-341.95578	925.00323	1202.84656	-396.86749	877.15942	1638.17871	-359.65527	996.97089	1383.11816	-330.32660	972.42615	1584.88293	-141.14746	1028.88635	1473.26514	-123.12973	1021.46686	1701.01697	-328.15540	683.36615	1673.47559	-313.05078	479.47562	1680.95740	-259.68463	291.03864	1645.47241	-257.29105	69.50179	1597.62402	-218.11577	40.93666	1648.17432	-414.46124	32.40915	1313.45581	-267.59012	665.06647	1315.14453	-285.72385	470.48465	1328.19739	-137.70810	366.16577	1375.46960	0.44541	237.31923	1444.70874	45.11036	214.18050	1326.95923	-44.17720	90.05692	1477.90820	-247.63153	1803.50610						 
99	0.980	1552.97754	-368.54761	1731.97302	1412.80029	-343.16495	1708.87573	1586.00061	-234.83823	1671.18188	1448.41455	-197.89694	1648.23462	1518.82190	-161.29103	1524.11157	1519.78381	-114.41467	1243.98547	1524.49646	-301.43942	1458.02002	1511.41028	-358.14426	1288.59277	1456.66296	-104.78813	1344.97534	1696.05347	-237.39977	1497.89832	1785.67749	-232.80888	1296.70972	1802.58948	-234.22041	1156.82043	1818.97534	-246.35892	1026.74084	1779.22217	-290.11435	897.78632	1825.36707	-257.26382	904.35797	1827.13245	-277.19489	840.65100	1330.35291	-230.23354	1491.00854	1245.11938	-216.29077	1300.42505	1223.71790	-249.56389	1155.74390	1210.82019	-307.81702	1048.60803	1236.27039	-388.89218	941.64044	1203.30090	-345.78113	923.86914	1205.07910	-399.48242	874.22803	1638.72314	-369.85867	996.92352	1383.54797	-340.41449	975.16022	1586.20654	-151.91190	1030.76270	1474.45593	-133.95348	1023.55450	1701.53589	-333.59320	683.07898	1673.87720	-314.81747	479.51920	1680.92493	-259.84732	291.48193	1645.31152	-257.24951	69.63739	1597.43311	-218.05014	41.08774	1648.28711	-414.40543	32.38932	1313.52209	-284.93292	667.41577	1316.35840	-307.72119	473.13602	1330.45544	-162.22791	365.31384	1378.11743	-27.64817	232.84979	1447.32776	16.30794	207.14378	1326.82275	-78.02937	89.02778	1477.85327	-259.44260	1804.82776	-3356.86768	2845.90259	1034.23975			 
100	0.990	1552.68506	-380.42975	1733.23315	1412.32141	-354.41971	1709.70532	1586.55713	-246.68137	1672.66980	1448.82239	-209.35048	1649.35742	1519.59155	-172.94711	1525.52063	1521.52429	-125.59171	1245.47668	1524.71216	-312.90985	1459.25720	1512.11914	-369.33154	1289.71582	1458.64148	-115.78304	1346.24121	1696.34570	-249.85973	1500.04431	1787.73889	-249.24911	1299.94250	1806.56763	-254.66643	1160.21118	1823.72522	-271.58630	1030.54980	1785.08911	-320.60141	903.62073	1830.68140	-287.00037	908.74579	1833.58630	-310.13504	846.49402	1331.12402	-240.96548	1491.82654	1246.49341	-225.76212	1301.31201	1225.41406	-257.11880	1156.09412	1212.39136	-313.76047	1047.98987	1238.09717	-392.86331	939.53918	1204.82141	-349.53525	922.68903	1207.11621	-402.08325	871.50916	1639.54004	-379.98276	996.99548	1384.38220	-351.31320	977.72839	1587.15771	-162.56770	1032.35999	1475.02368	-144.80513	1025.39697	1702.20581	-339.33630	682.81293	1674.41968	-316.13916	479.61349	1680.83606	-259.67029	291.97495	1645.15845	-257.20569	69.80702	1596.89685	-218.15158	41.63551	1648.37720	-414.40289	32.35573	1313.32703	-302.14554	669.71649	1317.59973	-329.30484	475.48102	1332.43152	-186.73750	363.64594	1380.50256	-56.49406	227.15967	1449.69995	-13.15590	198.89159	1327.29321	-112.56219	86.97972	1477.65234	-271.17245	1805.88318						 
101	1.000	1551.98840	-392.60318	1734.13843	1411.83679	-365.74799	1710.36792	1586.66992	-258.72504	1673.75928	1449.15430	-220.75600	1650.14246	1520.35132	-184.49898	1526.71790	1523.08667	-136.76448	1246.75085	1524.90149	-324.33481	1460.23108	1512.72852	-380.51859	1290.56323	1459.83936	-127.21923	1346.95679	1696.52039	-262.31296	1502.00183	1789.55200	-265.56027	1302.92444	1810.46277	-275.03864	1163.65930	1828.38794	-296.71921	1034.65002	1790.76086	-350.79919	909.54181	1836.09155	-316.48669	913.62286	1840.40918	-342.71219	853.04449	1331.42542	-251.81662	1492.34363	1247.56177	-234.84013	1301.73364	1226.87415	-264.80878	1156.28162	1213.98193	-319.42468	1047.36450	1239.77393	-396.58176	937.21735	1206.26489	-353.14859	921.32996	1209.02393	-404.56363	868.87250	1640.54443	-389.83368	997.06830	1385.74438	-362.41168	979.73425	1587.65002	-172.98088	1033.68506	1475.03833	-155.53610	1026.90857	1702.77100	-344.40491	682.36243	1674.77039	-317.81387	479.56836	1680.52673	-259.74991	292.34897	1644.92395	-257.38013	69.72795	1596.88318	-218.10664	42.01949	1648.44067	-414.40775	32.34122	1312.95898	-319.62494	672.19086	1318.75525	-350.56363	477.71127	1334.30103	-211.29497	361.20514	1382.76685	-86.14040	220.51259	1451.57886	-43.89795	189.63171	1328.02185	-148.47093	84.18919	1477.32935	-282.81226	1806.70593	-3360.48096	2845.19897	1034.31470			 
102	1.010	1551.33545	-404.39194	1734.91760	1411.22668	-377.00070	1710.67200	1586.72607	-270.78412	1674.56812	1449.41699	-232.19727	1650.68164	1520.96716	-196.12668	1527.58215	1524.57349	-147.93240	1247.79724	1525.03418	-335.81058	1460.92664	1513.32776	-391.57538	1291.14990	1461.31311	-138.20424	1347.89917	1696.60852	-274.72690	1503.66443	1791.12781	-281.94839	1305.71472	1814.19275	-295.22742	1167.02502	1832.93811	-321.80905	1038.88159	1796.42749	-381.17282	916.13733	1841.10754	-346.07782	918.76263	1845.83228	-375.22580	859.40991	1332.39624	-261.97455	1492.79016	1248.23718	-244.13998	1301.81323	1228.17810	-272.13272	1156.19666	1215.17566	-325.39026	1046.31384	1241.25220	-400.37396	934.90686	1207.58728	-356.62125	919.83929	1210.70251	-406.92963	866.11224	1641.74414	-399.52380	997.11334	1387.62549	-373.80399	981.28699	1587.61230	-183.15268	1034.58960	1474.42737	-166.27228	1028.14880	1703.03943	-349.06976	681.89459	1675.30371	-319.45529	479.60086	1680.42212	-260.03238	292.69852	1644.88672	-257.31604	69.99967	1596.75208	-218.15369	42.28193	1648.50122	-414.39178	32.31115	1312.43018	-336.62506	674.47162	1319.90259	-371.29211	479.77228	1335.98401	-236.15025	358.24081	1384.69580	-116.55357	212.83455	1453.75647	-75.24457	179.83798	1329.10901	-184.94972	80.22546	1476.97681	-294.38806	1807.21570	-3357.07007	2845.90381	1034.27209			 
